# xmcd
#
# Track frame offsets:
#	150
#	9539
#	21992
#	36803
#	51748
#	61636
#	76011
#	90485
#	102454
#	116787
#	126031
#
# Disc length: 1983 seconds
#
# Revision: 1
# Processed by: cddbd v1.5.2PL0 Copyright (c) Steve Scherf et al.
# Submitted via: audiograbber 1.83.01
#
DISCID=8807bd0b
DTITLE=Elizabeth Cook - Balls
DYEAR=2007
DGENRE=Country
TTITLE0=Times Are Tough In Rock N' Roll
TTITLE1=Don't Go Borrowin' Trouble
TTITLE2=Sometimes It Takes Balls To Be A Woman
TTITLE3=Rest Your Weary Mind
TTITLE4=He Got No Heart
TTITLE5=Mama's Prayers
TTITLE6=Sunday Morning
TTITLE7=What Do I Do
TTITLE8=Down Girl
TTITLE9=Gonna Be
TTITLE10=Always Tomorrow
EXTD=YEAR: 2007
EXTT0=
EXTT1=
EXTT2=
EXTT3=
EXTT4=
EXTT5=
EXTT6=
EXTT7=
EXTT8=
EXTT9=
EXTT10=
PLAYORDER=
